<svg xmlns="http://www.w3.org/2000/svg" viewBox="0 0 2000 1000" style="background: transparent;">
  <!-- Simplified World Map Continents -->
  <g id="continents" fill="#e8edf2" stroke="#c5d4e0" stroke-width="1">
    <!-- North America -->
    <path d="M 150,150 L 200,120 L 280,110 L 350,130 L 380,180 L 400,240 L 420,280 L 380,320 L 340,340 L 300,350 L 260,340 L 220,310 L 180,270 L 150,220 Z"/>
    <path d="M 280,340 L 320,370 L 300,420 L 270,450 L 240,440 L 220,400 L 240,360 Z"/>
    
    <!-- South America -->
    <path d="M 330,520 L 360,500 L 390,520 L 410,570 L 420,630 L 410,690 L 380,740 L 350,760 L 320,750 L 300,710 L 290,650 L 300,590 L 310,550 Z"/>
    
    <!-- Europe -->
    <path d="M 900,180 L 950,160 L 1000,170 L 1040,200 L 1050,240 L 1020,270 L 980,280 L 940,270 L 910,250 L 890,220 Z"/>
    
    <!-- Africa -->
    <path d="M 920,340 L 980,320 L 1040,340 L 1080,380 L 1100,450 L 1090,530 L 1060,610 L 1020,670 L 960,700 L 910,690 L 880,650 L 870,590 L 880,520 L 900,450 L 910,390 Z"/>
    
    <!-- Asia -->
    <path d="M 1100,150 L 1200,130 L 1300,140 L 1400,160 L 1500,180 L 1580,210 L 1620,260 L 1600,320 L 1550,360 L 1480,380 L 1400,370 L 1320,350 L 1250,320 L 1180,280 L 1130,230 L 1100,180 Z"/>
    
    <!-- Australia -->
    <path d="M 1550,650 L 1620,640 L 1680,660 L 1720,700 L 1710,750 L 1670,780 L 1610,770 L 1560,740 L 1540,700 Z"/>
  </g>
</svg>
